<!--?xml version="1.0" encoding="utf-8"?-->
<!-- Generator: Adobe Illustrator 19.1.1, SVG Export Plug-In . SVG Version: 6.00 Build 0)  -->
<svg version="1.1" id="_x31_0" xmlns="http://www.w3.org/2000/svg" xmlns:xlink="http://www.w3.org/1999/xlink" x="0px" y="0px" viewBox="0 0 512 512" style="width: 256px; height: 256px; opacity: 1;" xml:space="preserve">
<style type="text/css">
	.st0{fill:#374149;}
</style>
<g>
	<path class="st0" d="M88.068,286.379c-2.175,2.004-9.93,8.141-23.566,15.129c-18.75,9.586-40.652,20.754-45.512,25.184
		c-3.789,3.41-8.562,10.484-12.527,19.77c-0.851,2.05-1.703,4.179-2.469,6.438c-0.726,2.042-1.406,4.175-1.961,6.39
		c-0.77,2.683-1.363,5.453-1.875,8.309c-0.938,5.457,2.387,10.695,7.711,12.058c31.234,7.973,69.969,12.703,111.946,12.703
		c41.93,0,80.622-4.73,111.814-12.656c5.37-1.364,8.695-6.649,7.714-12.106c-0.512-2.856-1.152-5.626-1.875-8.309
		c-0.598-2.215-1.238-4.348-2.004-6.39c-0.722-2.258-1.578-4.387-2.472-6.438c-3.918-9.286-8.692-16.317-12.485-19.77
		c-4.859-4.477-26.848-15.637-45.594-25.184c-13.68-7.031-21.395-13.125-23.61-15.129v-11.844v-6.519
		c1.023-0.387,2.004-1.11,2.942-2.133c0.168-0.168,0.339-0.34,0.469-0.555c2.598-2.938,4.73-6.262,5.793-9.371
		c0.129-0.382,0.258-0.77,0.386-1.152c2.344-6.649,4.133-14.145,4.473-16.278c0.031-0.16,0.043-0.285,0.062-0.418
		c0.008-0.035,0.027-0.102,0.035-0.137c0.977,0.297,1.91,0.426,2.715,0.426c9.886,0,13.934-20.242,14.488-25.566
		c0.598-5.367-4.176-9.031-5.922-10.442c0.382-0.851,0.851-2.129,1.32-3.621c0.043-0.086,0.086-0.215,0.129-0.34
		c0.594-1.832,1.446-4.305,2.215-7.754c0.469-2.05,0.894-4.476,1.277-7.332c0.254-1.746,0.298-3.621,0.215-5.453
		c-0.129-3.836-0.938-7.801-2.344-11.422c-1.152-3.152-2.77-6.05-4.73-8.394l-0.042-0.043c-1.364-1.617-2.899-3.281-4.52-4.773
		c-6.39-6.18-13.934-11.164-17.469-11.164c-7.16-12.868-16.32-21.219-33.282-22.371c-1.023-0.043-2.042-0.043-3.152-0.082h-0.215
		c-12.781,0-34.344,10.992-45.336,25.992c0,0.043,0,0.043,0,0.043c-1.11,1.492-2.09,3.023-2.942,4.558
		c-1.449,2.641-2.77,5.114-3.878,7.458c-1.79,3.793-3.153,7.328-4.004,10.863c-0.512,1.664-0.852,3.367-1.024,5.117
		c-0.726,4.942-0.598,10.184,0.383,16.489v0.043c0.383,2.601,0.894,5.414,1.578,8.437c0.042,0.043,0.042,0.086,0.042,0.13
		c0.512,1.492,0.938,2.77,1.406,3.621c-1.707,1.41-5.926,3.75-5.414,9.078c0.554,5.367,4.007,26.93,13.89,26.93
		c0.898,0,1.836-0.129,2.855-0.426c0.172,1.707,1.066,6.562,2.898,11.504c0.512,1.449,1.11,3.281,1.746,5.199
		c0.129,0.382,0.258,0.726,0.386,1.109c1.063,3.07,3.066,6.391,5.582,9.246c0.254,0.297,0.55,0.598,0.809,0.894
		c0.938,0.981,1.918,1.703,2.941,2.09v6.39V286.379z" style="fill: rgb(75, 75, 75);"></path>
	<path class="st0" d="M299.429,296.058v52.126c0,8.129,6.614,14.742,14.742,14.742h182.192c8.129,0,14.742-6.614,14.742-14.742
		v-52.126c0-8.133-6.614-14.746-14.742-14.746H314.171C306.042,281.313,299.429,287.926,299.429,296.058z M318.081,299.969h174.372
		v44.301H318.081V299.969z" style="fill: rgb(75, 75, 75);"></path>
	<polygon class="st0" points="298.534,175.582 298.534,239.687 340.128,239.687 340.128,228.718 340.132,228.683 340.128,228.683 
		340.128,228.523 311.05,228.523 311.05,175.582 	" style="fill: rgb(75, 75, 75);"></polygon>
	<path class="st0" d="M358.499,238.515c2.34,1.145,5.25,1.711,8.73,1.711c3.481,0,6.406-0.566,8.778-1.711
		c2.371-1.14,4.309-2.488,5.809-4.05c2.16-2.219,3.586-4.758,4.274-7.61c0.691-2.847,1.035-6.406,1.035-10.668
		c0-4.262-0.356-7.785-1.074-10.578c-0.723-2.789-2.133-5.324-4.234-7.605c-1.5-1.563-3.438-2.914-5.809-4.055
		c-2.371-1.137-5.297-1.711-8.778-1.711c-3.48,0-6.39,0.574-8.73,1.711c-2.344,1.141-4.266,2.492-5.766,4.055
		c-2.098,2.281-3.512,4.816-4.23,7.605c-0.718,2.794-1.082,6.317-1.082,10.578c0,4.262,0.364,7.805,1.082,10.625
		c0.718,2.821,2.133,5.371,4.23,7.653C354.234,236.027,356.155,237.375,358.499,238.515z M359.578,209.617
		c0.301-1.98,1.046-3.57,2.25-4.774c1.379-1.378,3.18-2.07,5.402-2.07c2.282,0,4.11,0.692,5.493,2.07
		c1.199,1.203,1.949,2.794,2.25,4.774c0.301,1.981,0.453,4.172,0.453,6.57c0,2.465-0.152,4.684-0.453,6.664
		c-0.301,1.981-1.05,3.57-2.25,4.77c-1.383,1.383-3.211,2.07-5.493,2.07c-2.222,0-4.023-0.687-5.402-2.07
		c-1.203-1.199-1.949-2.789-2.25-4.77c-0.301-1.98-0.45-4.199-0.45-6.664C359.128,213.789,359.277,211.598,359.578,209.617z" style="fill: rgb(75, 75, 75);"></path>
	<path class="st0" d="M405.132,256.117c2.645,0.871,5.766,1.305,9.364,1.305c3.121,0,5.957-0.48,8.511-1.438
		c2.551-0.961,4.727-2.312,6.524-4.05c1.801-1.746,3.183-3.797,4.144-6.172c0.958-2.367,1.442-4.965,1.442-7.785v-44.903v-0.136
		v-0.161h-11.344v2.602l-0.106,1.715c-1.59-1.742-3.234-2.992-4.937-3.726c-1.742-0.75-3.871-1.13-6.391-1.13
		c-2.285,0-4.398,0.364-6.347,1.082c-1.954,0.718-3.586,1.742-4.906,3.058c-1.082,1.082-1.954,2.286-2.614,3.606
		c-0.66,1.321-1.141,2.746-1.438,4.274c-0.305,1.531-0.5,3.183-0.586,4.953c-0.094,1.77-0.137,3.676-0.137,5.719
		c0,2.039,0.043,3.961,0.137,5.762c0.086,1.797,0.281,3.465,0.586,4.996c0.297,1.531,0.778,2.958,1.438,4.278
		c0.66,1.32,1.531,2.519,2.614,3.602c1.32,1.32,2.938,2.34,4.859,3.058c1.922,0.722,4.019,1.082,6.301,1.082
		c2.282,0,4.324-0.344,6.121-1.035c1.41-0.539,2.723-1.5,3.985-2.68c0.351-0.285,0.699-0.523,1.058-0.84v4.645
		c0,1.199-0.164,2.386-0.492,3.554c-0.332,1.172-0.871,2.207-1.621,3.106c-0.75,0.902-1.727,1.637-2.93,2.207
		c-1.199,0.57-2.668,0.855-4.41,0.855c-1.981,0-3.676-0.285-5.086-0.855c-1.41-0.57-2.777-1.484-4.094-2.746l-7.086,7.172
		l-0.098,0.094l0.003,0.004l-0.113,0.114C399.941,253.645,402.492,255.246,405.132,256.117z M423.187,219.476
		c-0.153,1.469-0.496,2.774-1.035,3.914c-0.539,1.141-1.32,2.058-2.34,2.746c-1.023,0.691-2.402,1.035-4.145,1.035
		c-1.742,0-3.121-0.344-4.14-1.035c-1.024-0.688-1.79-1.606-2.294-2.746c-0.515-1.141-0.843-2.446-0.992-3.914
		c-0.152-1.472-0.226-2.988-0.226-4.546c0-1.562,0.074-3.078,0.226-4.547c0.149-1.473,0.477-2.762,0.992-3.875
		c0.504-1.109,1.27-2.007,2.294-2.699c1.019-0.687,2.398-1.035,4.14-1.035c1.742,0,3.122,0.348,4.145,1.035
		c1.02,0.692,1.801,1.59,2.34,2.699c0.539,1.114,0.882,2.402,1.035,3.875c0.148,1.469,0.222,2.985,0.222,4.547
		C423.41,216.488,423.335,218.004,423.187,219.476z" style="fill: rgb(75, 75, 75);"></path>
	<polygon class="st0" points="448.078,175.222 448.078,184.766 460.05,184.766 460.05,175.41 460.055,175.382 460.05,175.382 
		460.05,175.222 	" style="fill: rgb(75, 75, 75);"></polygon>
	<polygon class="st0" points="459.965,239.687 459.965,194.426 459.965,194.289 459.965,194.129 448.262,194.129 448.262,239.39 
		448.258,239.527 448.262,239.527 448.262,239.687 	" style="fill: rgb(75, 75, 75);"></polygon>
	<path class="st0" d="M473.015,192.777v46.91h11.707v-28.363c0-1.617,0.234-2.969,0.719-4.047c0.48-1.082,1.094-1.953,1.847-2.613
		c0.75-0.66,1.586-1.141,2.52-1.442c0.926-0.301,1.843-0.45,2.742-0.45c0.902,0,1.817,0.149,2.75,0.45
		c0.93,0.301,1.77,0.782,2.519,1.442c0.75,0.66,1.352,1.531,1.801,2.613c0.454,1.078,0.676,2.43,0.676,4.047v28.118v0.086v0.16H512
		v-29.98c0-2.582-0.313-4.966-0.946-7.161c-0.629-2.187-1.906-4.246-3.824-6.168c-1.324-1.316-2.914-2.34-4.774-3.058
		c-1.863-0.718-3.961-1.082-6.301-1.082c-2.16,0-4.262,0.406-6.305,1.219c-1.609,0.637-3.023,1.602-4.336,2.746
		c-0.351,0.262-0.71,0.496-1.062,0.781v-4.207H473.015z" style="fill: rgb(75, 75, 75);"></path>
</g>
</svg>
